<svg width="1473.7" height="1470.1" version="1.1" viewBox="0 0 147.37 147.01" xmlns="http://www.w3.org/2000/svg">
 <path d="m80.501 0a31.46 31.46 0 0 1-31.432 31.439v17.561a49 49 0 0 0 49-49zm49.279 0a31.46 31.46 0 0 1-31.41 31.439v17.561a49 49 0 0 0 49-49zm-31.41 49h-17.59a31.71 31.71 0 0 1-31.711 31.66v17.689a49.41 49.41 0 0 0 49.352-49.35zm-49.301 0.0098a49 49 0 0 0-0.13867 98h0.13867v-0.0488a49 49 0 0 0 49-49h-17.568a31.46 31.46 0 0 1-31.432 31.449 31.43 31.43 0 0 1 0-62.85z" fill="#f30"/>
</svg>
